HIERARCHY
ROOT Hips
{
	OFFSET 0.0000 0.0000 0.0000
	CHANNELS 6 Xposition Yposition Zposition Zrotation Xrotation Yrotation
	JOINT Ab
	{
		OFFSET -0.0000 8.1305 -0.0000
		CHANNELS 3 Zrotation Xrotation Yrotation
		JOINT Chest
		{
			OFFSET -0.0000 26.2902 -0.0000
			CHANNELS 3 Zrotation Xrotation Yrotation
			JOINT Neck
			{
				OFFSET -0.0000 26.2902 0.0000
				CHANNELS 3 Zrotation Xrotation Yrotation
				JOINT Head
				{
					OFFSET -0.0000 10.8167 0.0000
					CHANNELS 3 Zrotation Xrotation Yrotation
					End Site
					{
						OFFSET -0.0000 16.7167 0.0000
					}
				}
			}
			JOINT LeftCollar
			{
				OFFSET -0.0000 26.2902 0.0000
				CHANNELS 3 Zrotation Xrotation Yrotation
				JOINT LeftShoulder
				{
					OFFSET 19.6667 -0.0000 0.0000
					CHANNELS 3 Zrotation Xrotation Yrotation
					JOINT LeftElbow
					{
						OFFSET 27.2190 0.0000 0.0000
						CHANNELS 3 Zrotation Xrotation Yrotation
						JOINT LeftWrist
						{
							OFFSET 30.7431 0.0000 0.0000
							CHANNELS 3 Zrotation Xrotation Yrotation
							End Site
							{
								OFFSET 0.0000 -14.7500 0.0000
							}
						}
					}
				}
			}
			JOINT RightCollar
			{
				OFFSET -0.0000 26.2902 0.0000
				CHANNELS 3 Zrotation Xrotation Yrotation
				JOINT RightShoulder
				{
					OFFSET -19.6667 0.0000 0.0000
					CHANNELS 3 Zrotation Xrotation Yrotation
					JOINT RightElbow
					{
						OFFSET -27.2190 0.0000 0.0000
						CHANNELS 3 Zrotation Xrotation Yrotation
						JOINT RightWrist
						{
							OFFSET -30.7431 0.0000 0.0000
							CHANNELS 3 Zrotation Xrotation Yrotation
							End Site
							{
								OFFSET -0.0000 -14.7500 0.0000
							}
						}
					}
				}
			}
		}
	}
	JOINT LeftHip
	{
		OFFSET 11.8000 0.0000 0.0000
		CHANNELS 3 Zrotation Xrotation Yrotation
		JOINT LeftKnee
		{
			OFFSET -0.0000 -39.7832 0.0000
			CHANNELS 3 Zrotation Xrotation Yrotation
			JOINT LeftAnkle
			{
				OFFSET -0.0000 -41.7317 0.0000
				CHANNELS 3 Zrotation Xrotation Yrotation
				End Site
				{
					OFFSET -0.0000 -4.9167 16.7167
				}
			}
		}
	}
	JOINT RightHip
	{
		OFFSET -11.8000 0.0000 0.0000
		CHANNELS 3 Zrotation Xrotation Yrotation
		JOINT RightKnee
		{
			OFFSET -0.0000 -39.7832 0.0000
			CHANNELS 3 Zrotation Xrotation Yrotation
			JOINT RightAnkle
			{
				OFFSET -0.0000 -41.7317 0.0000
				CHANNELS 3 Zrotation Xrotation Yrotation
				End Site
				{
					OFFSET -0.0000 -4.9167 16.7167
				}
			}
		}
	}
}
MOTION
Frames: 13
Frame Time: 0.010000
-6.5170 91.2614 71.2802 355.3877 348.7542 198.1638 359.3739 349.3564 0.7347 2.7479 14.6702 0.4376 350.9779 351.4697 350.8038 9.2586 12.7297 350.4461 340.2234 357.5715 13.7787 324.6183 59.7773 334.6282 11.8406 355.5272 318.5629 88.5256 355.3653 349.3357 26.2544 356.3214 344.3561 37.7422 45.9454 11.5928 334.9224 351.2292 38.5377 268.6893 355.1977 1.4882 349.3890 349.6601 357.2535 357.2416 9.1844 3.8279 353.8526 351.8076 13.4131 351.1350 349.9238 1.6151 13.9512 24.9889 15.7324 346.0863 337.0068 310.0272 
-6.5845 91.1716 70.9230 355.5519 349.0169 198.1219 359.3636 349.3095 0.6300 2.6992 14.7403 0.3332 351.1084 351.5334 350.8283 9.3098 12.6936 350.4526 340.1641 357.5661 13.7789 324.5802 59.6089 334.8959 11.6496 355.6441 318.8310 88.4608 355.2680 349.0031 26.3421 356.3010 344.3396 37.9814 45.7644 11.2760 335.1944 351.2597 38.7514 268.7335 354.9473 2.0936 349.7196 349.9812 357.2794 357.1019 9.3222 3.6404 354.2024 351.8632 13.7808 351.4187 350.1531 1.5222 13.9253 25.4370 15.8427 346.0759 336.7858 310.0137 
-6.6760 91.1031 70.6090 355.5545 349.1674 197.9269 359.2147 349.2554 0.5718 2.6265 14.7768 0.3033 351.0431 351.5742 350.8459 9.4550 12.6674 350.4573 340.0355 357.5465 13.9305 324.8261 59.4366 334.7687 11.4713 355.7412 319.1989 88.4682 355.2582 348.8422 26.4565 356.3137 344.4410 38.1962 45.6064 10.9103 335.4458 351.3079 38.8767 268.8176 354.8332 2.4669 349.8475 350.2685 357.4316 356.9862 9.3602 3.4965 354.7014 351.9651 14.0300 351.4685 350.1539 1.5119 13.9976 26.1007 16.0125 346.0190 336.6253 309.9131 
-6.8028 91.0522 70.3015 355.4879 349.2919 197.7252 359.0515 349.1835 0.5135 2.4884 14.8503 0.2778 350.9541 351.5939 350.8506 9.6603 12.6414 350.4494 339.9195 357.4976 14.0449 324.9826 59.2686 334.7216 11.3539 355.7879 319.5274 88.5016 355.2612 348.9432 26.6337 356.2725 344.3671 38.1662 45.2582 10.7384 335.7700 351.3716 39.2564 268.9763 354.9025 2.9634 349.8363 350.5739 357.5471 356.9368 9.3845 3.3740 355.1809 352.0146 14.2574 351.3988 350.1500 1.4592 14.1046 26.7777 16.1445 345.9999 336.4082 309.8584 
-6.9256 91.0121 70.0092 355.3972 349.4185 197.5337 358.8688 349.1434 0.4571 2.3216 14.9401 0.2589 350.9569 351.5933 350.9141 9.8032 12.6263 350.4984 339.8128 357.4961 14.1324 325.1241 59.0033 334.7189 11.1647 355.8976 319.7787 88.6537 355.2561 348.7456 26.7701 356.2715 344.4461 38.4256 45.1255 10.2762 335.9321 351.3283 39.5085 269.0609 354.9065 3.2466 349.7992 350.8987 357.7039 356.8934 9.3806 3.4186 355.3703 352.0267 14.4205 351.2890 350.1027 1.4435 14.2684 27.5165 16.2181 346.0672 336.1238 309.8202 
-7.0517 90.9793 69.7233 355.3090 349.5343 197.3534 358.6823 349.0995 0.4096 2.1719 15.0220 0.2426 350.9549 351.6089 350.9809 9.8963 12.6187 350.5539 339.7247 357.4718 14.2042 325.2918 58.8225 334.6165 11.1294 355.9395 320.0923 88.6536 355.2480 348.8738 26.8621 356.2469 344.3437 38.4037 45.1782 10.3502 336.0562 351.3516 39.4078 269.1252 354.8433 3.4275 349.7528 351.2201 357.9015 356.8768 9.3634 3.4721 355.6324 352.0873 14.4453 351.1649 350.0462 1.4307 14.4520 28.2483 16.2732 346.1197 335.8358 309.7664 
-7.1853 90.9535 69.4495 355.2272 349.6300 197.1988 358.5035 349.0691 0.3715 2.0166 15.0683 0.2451 350.9263 351.6386 351.0261 9.9966 12.5966 350.5890 339.6423 357.4419 14.2136 325.2866 58.6186 334.7467 11.0746 355.9775 320.2597 89.1204 355.3942 348.9734 26.8824 356.2183 344.2185 38.5998 45.2855 10.2945 336.0526 351.3616 39.2556 269.2130 354.8372 3.4408 349.7115 351.5402 358.0608 356.8414 9.3018 3.6180 356.0089 352.1680 14.3846 351.0363 349.9715 1.2643 14.5267 28.9889 16.3052 346.3190 335.5468 309.8879 
-7.3125 90.9250 69.1746 355.1718 349.7469 197.0724 358.3461 349.0764 0.3330 1.8614 15.0736 0.2383 350.9393 351.6702 351.0726 10.0222 12.6303 350.6258 339.5672 357.4107 14.2223 325.3567 58.4556 334.8013 11.0595 355.9961 320.4033 89.4614 355.5879 349.3871 26.9073 356.1942 344.1436 38.9417 45.2996 10.0333 336.0624 351.3867 39.1793 269.2321 354.8099 3.5744 349.7322 351.8809 358.2475 356.7702 9.2320 3.7072 356.4712 352.2594 14.3004 350.9506 349.9313 1.1244 14.5790 29.7006 16.3104 346.5510 335.2802 310.0376 
-7.4362 90.9006 68.8996 355.1794 349.8523 197.0025 358.2398 349.0556 0.2735 1.7198 15.0678 0.2243 350.9338 351.7120 351.1339 10.0199 12.6830 350.6812 339.5026 357.4117 14.2461 325.4420 58.2864 334.8061 11.0031 356.0612 320.6358 89.2647 355.5537 349.0939 26.8271 356.1850 343.9997 39.3885 45.4627 9.8316 335.9467 351.3533 39.0072 269.3210 354.7585 3.4597 349.8341 352.1910 358.4152 356.6594 9.1716 3.8180 356.6759 352.2429 14.0909 350.9094 349.8471 0.9578 14.6456 30.4531 16.3257 346.7558 335.0802 310.1378 
-7.5660 90.8765 68.6446 355.1492 349.9332 196.8869 358.1150 349.0671 0.2390 1.5673 15.0194 0.2428 350.8820 351.7614 351.1793 10.0204 12.7433 350.7196 339.4507 357.3866 14.2630 325.4937 58.1385 334.8324 10.9891 356.0971 320.7871 89.0798 355.6477 348.9297 26.8266 356.1517 343.9286 39.7585 45.5147 9.5212 335.8943 351.3602 38.8950 269.4076 354.7343 3.4152 349.9010 352.4766 358.5918 356.5349 9.1251 3.8677 356.7771 352.1865 13.9260 350.8164 349.6812 0.8528 14.7430 31.2832 16.3417 347.0038 334.8627 310.2172 
-7.6997 90.8424 68.3811 355.1167 350.0421 196.7673 357.9979 349.0970 0.2202 1.4098 14.9754 0.2487 350.8206 351.8302 351.2495 10.0523 12.7824 350.7829 339.4065 357.3735 14.3084 325.5604 57.9861 334.8332 10.9249 356.1294 320.9033 88.8635 355.5386 348.6816 26.8035 356.1576 343.9331 40.2498 45.5038 9.0904 335.8981 351.3740 38.8442 269.4935 354.7049 3.4737 349.9806 352.8280 358.8075 356.3966 9.0263 3.8456 356.7957 352.1450 13.8448 350.7056 349.5067 0.8085 14.9455 32.1765 16.2267 347.1616 334.7190 310.2894 
-7.8318 90.8029 68.1262 355.0780 350.1323 196.6464 357.8825 349.1112 0.1938 1.2251 14.9483 0.2464 350.8017 351.9066 351.3206 10.0475 12.7965 350.8490 339.3645 357.3563 14.3509 325.6582 57.7779 334.8334 10.8742 356.1611 320.9616 88.4792 355.4735 348.3761 26.7760 356.1444 343.9053 40.6866 45.5733 8.7483 335.8780 351.3943 38.7546 269.5604 354.5875 3.4995 350.0423 353.1655 359.0540 356.2722 8.9202 3.7669 356.9864 352.1155 13.7721 350.5795 349.2611 0.7594 15.1824 33.1771 16.0246 347.3595 334.5174 310.4338 
-7.9653 90.7543 67.8741 355.0398 350.2296 196.5198 357.7774 349.1266 0.1735 1.0551 14.9418 0.2467 350.8004 351.9622 351.4422 9.9737 12.7790 350.9778 339.3305 357.3576 14.3965 325.7305 57.5900 334.8358 10.8217 356.1647 320.9194 88.3648 355.5646 348.1654 26.7674 356.1529 343.9540 41.1267 45.5758 8.3625 335.8765 351.3880 38.6893 269.5208 354.6337 3.4966 350.0909 353.5258 359.2422 356.1535 8.7855 3.6570 357.1746 352.0745 13.7864 350.4315 348.9681 0.6639 15.4250 34.2494 15.8746 347.5785 334.4328 310.6365 
